<svg version="1.1"
	 xmlns="http://www.w3.org/2000/svg" xmlns:xlink="http://www.w3.org/1999/xlink" xmlns:a="http://ns.adobe.com/AdobeSVGViewerExtensions/3.0/"
	 x="0px" y="0px" width="428.8px" height="415.2px" viewBox="0 0 428.8 415.2"
	 style="overflow:scroll;enable-background:new 0 0 428.8 415.2;" xml:space="preserve">
<style type="text/css">
	.st0{fill:#C6FF00;}
	.st1{opacity:0.7;fill:#FFFFFF;}
	.st2{fill:#263238;}
	.st3{clip-path:url(#XMLID_21_);}
	.st4{fill:#FFFFFF;stroke:#263238;stroke-width:1.1915;stroke-linecap:round;stroke-linejoin:round;stroke-miterlimit:10;}
	.st5{clip-path:url(#XMLID_22_);fill:#C6FF00;}
	.st6{opacity:0.5;clip-path:url(#XMLID_22_);fill:#FFFFFF;}
	.st7{fill:none;stroke:#263238;stroke-width:1.1915;stroke-linecap:round;stroke-linejoin:round;stroke-miterlimit:10;}
	.st8{clip-path:url(#XMLID_24_);fill:#C6FF00;}
	.st9{opacity:0.5;clip-path:url(#XMLID_24_);fill:#FFFFFF;}
	.st10{clip-path:url(#XMLID_25_);}
	.st11{opacity:0.5;clip-path:url(#XMLID_25_);}
	.st12{fill:#FFFFFF;}
	.st13{fill:#C6FF00;stroke:#263238;stroke-width:1.1915;stroke-linecap:round;stroke-linejoin:round;stroke-miterlimit:10;}
	.st14{clip-path:url(#XMLID_26_);fill:#C6FF00;}
	.st15{opacity:0.5;clip-path:url(#XMLID_26_);fill:#FFFFFF;}
	.st16{clip-path:url(#XMLID_27_);fill:#C6FF00;}
	.st17{opacity:0.5;clip-path:url(#XMLID_27_);fill:#FFFFFF;}
	.st18{clip-path:url(#XMLID_28_);fill:#C6FF00;}
	.st19{opacity:0.5;clip-path:url(#XMLID_28_);fill:#FFFFFF;}
	.st20{clip-path:url(#XMLID_29_);fill:#C6FF00;}
	.st21{opacity:0.5;clip-path:url(#XMLID_29_);fill:#FFFFFF;}
	.st22{fill:#263238;stroke:#263238;stroke-width:1.1915;stroke-linecap:round;stroke-linejoin:round;stroke-miterlimit:10;}
	.st23{clip-path:url(#XMLID_30_);}
	.st24{clip-path:url(#XMLID_31_);fill:#C6FF00;}
	.st25{opacity:0.5;clip-path:url(#XMLID_31_);fill:#FFFFFF;}
	.st26{clip-path:url(#XMLID_33_);fill:#C6FF00;}
	.st27{opacity:0.5;clip-path:url(#XMLID_33_);fill:#FFFFFF;}
	.st28{clip-path:url(#XMLID_34_);}
	.st29{opacity:0.5;clip-path:url(#XMLID_34_);}
	.st30{clip-path:url(#XMLID_35_);fill:#C6FF00;}
	.st31{opacity:0.5;clip-path:url(#XMLID_35_);fill:#FFFFFF;}
	.st32{clip-path:url(#XMLID_36_);fill:#C6FF00;}
	.st33{opacity:0.5;clip-path:url(#XMLID_36_);fill:#FFFFFF;}
	.st34{clip-path:url(#XMLID_37_);fill:#C6FF00;}
	.st35{opacity:0.5;clip-path:url(#XMLID_37_);fill:#FFFFFF;}
	.st36{clip-path:url(#XMLID_38_);fill:#C6FF00;}
	.st37{opacity:0.5;clip-path:url(#XMLID_38_);fill:#FFFFFF;}
</style>
<defs>
</defs>
<g>
	<path class="st0" d="M4.2,234.8c0,0-0.5,70.8,56.6,119.4c57.1,48.6,138.7,54.1,204.6,60.2c66,6.1,118.2-30.1,128.1-86.6
		c9.9-56.5-40-74.4-64.9-139.6C303.7,123,307,101.9,250.5,60.7C194,19.6,102.3,41.7,52.1,108.5C1.9,175.3,4.2,234.8,4.2,234.8z"/>
	<path class="st1" d="M4.2,234.8c0,0-0.5,70.8,56.6,119.4c57.1,48.6,138.7,54.1,204.6,60.2c66,6.1,118.2-30.1,128.1-86.6
		c9.9-56.5-40-74.4-64.9-139.6C303.7,123,307,101.9,250.5,60.7C194,19.6,102.3,41.7,52.1,108.5C1.9,175.3,4.2,234.8,4.2,234.8z"/>
</g>
<g>
	
		<ellipse id="XMLID_20_" transform="matrix(0.5769 -0.8168 0.8168 0.5769 -25.944 374.9079)" class="st2" cx="348.9" cy="212.5" rx="15.3" ry="15.3"/>
	<g>
		<path class="st0" d="M356.7,204.3l7.4,10.4c0.3-2.1,0.2-4.1-0.3-6.1L356.7,204.3z"/>
		<path class="st0" d="M341.1,199.4l17.7,24.9c1.4-1.2,2.7-2.7,3.6-4.4l-14.8-22.7C345.2,197.5,343,198.2,341.1,199.4z"/>
		<path class="st0" d="M348.4,227.8l-7.7-11l4,10.4C345.9,227.6,347.1,227.8,348.4,227.8z"/>
		<path class="st0" d="M354.6,226.7l-17.6-23.9c-0.2,0.2-0.3,0.4-0.5,0.7l12.7,24.4C351.1,227.8,352.9,227.4,354.6,226.7z"/>
	</g>
</g>
<g>
	<g>
		<defs>
			
				<ellipse id="XMLID_18_" transform="matrix(0.9955 -9.511224e-02 9.511224e-02 0.9955 -34.5118 20.4011)" cx="196.8" cy="372.2" rx="24.7" ry="24.7"/>
		</defs>
		<use xlink:href="#XMLID_18_"  style="overflow:visible;fill:#263238;"/>
		<clipPath id="XMLID_21_">
			<use xlink:href="#XMLID_18_"  style="overflow:visible;"/>
		</clipPath>
		<g class="st3">
			<path class="st0" d="M219.1,382.9l-16.9-26.5l19.2,18.4c0.1-0.5,0.1-1,0.1-1.5l-22.7-25.7c-1.9-0.2-3.9-0.1-5.8,0.2l4.6,7.3
				l-7.5-6.6c0,0,0,0,0,0l6,10.9l-12.1-8.1c-0.3,0.2-0.6,0.4-0.9,0.6l22.5,25l-17.9-13.6l6.3,10l-9.3-6.4l24.2,27.1
				c3-1.7,5.6-3.9,7.6-6.6l-4.9-8.2l6.1,6.5C218.1,384.7,218.6,383.8,219.1,382.9z"/>
			<path class="st0" d="M204.1,395.9l-19.3-22.3l8.6,13.3l-21.2-16.6c-0.3,4.1,0.3,8.3,2.2,12.3c3.7,8,11.1,13.2,19.3,14.2l-7.6-6.8
				l11.9,7C199.8,396.9,202,396.5,204.1,395.9z"/>
			<path class="st0" d="M206,349.3l10.8,12.6l-2.2-4.8l3.5,2.7C215.3,354.9,210.9,351.3,206,349.3z"/>
			<path class="st0" d="M180.7,368.8l-5.9-8.1c-1.2,2.3-2.1,4.8-2.5,7.3L180.7,368.8z"/>
		</g>
	</g>
	<path class="st2" d="M233.5,355.8c-1.8-3.9-9.8-4.5-20.4-2.1c0.7,0.6,1.3,1.2,1.9,1.9c7.9-1.8,13.6-1.7,14.7,0.9
		c2.1,4.5-10.8,14.8-28.7,23c-17.9,8.2-34.1,11.2-36.2,6.7c-1.1-2.3,1.8-6.2,7.4-10.5c-0.1-0.9-0.2-1.8-0.2-2.7
		c-7.7,6-11.8,11.8-10.1,15.5c2.9,6.2,21.2,4,41-5.1C222.7,374.4,236.4,362,233.5,355.8z"/>
</g>
<g>
	
		<ellipse transform="matrix(0.2322 -0.9727 0.9727 0.2322 -72.0866 181.9771)" class="st0" cx="79.2" cy="136.6" rx="24.4" ry="24.4"/>
	<g>
		<path class="st2" d="M85,118.6c1.7-1.6,3.6-2.7,5.6-3.5c-2-1-4.1-1.8-6.3-2.3c-2.2,1.5-4.3,3.1-6.4,5c-8.7,7.9-6.4,7.1-19.1,11.9
			c-1.2,0.5-2.4,1-3.4,1.6c-0.4,1.7-0.6,3.5-0.6,5.3c0,3.2,0.6,6.2,1.7,9c4.5-1.4,10.6-3.6,13.4-6.4C74.7,134.5,75.4,127.3,85,118.6
			z"/>
		<path class="st2" d="M61.5,153.4c1.8,2,4,3.6,6.4,4.9c4.5-3.2,6.7-6.6,13.1-9.5c5.7-2.6,15.1-3.2,20.9-3.2
			c1.1-2.8,1.7-5.7,1.7-8.9c0-0.4,0-0.8-0.1-1.3c-4.1,0.3-11.9,1.3-20.2,4.6C74.2,143.7,69.7,150.3,61.5,153.4z"/>
		<path class="st2" d="M85.8,128.1c4.3,2.2,11,1,16.1-0.4c-1-2.5-2.4-4.8-4.1-6.8C90.9,122.1,79.8,125.1,85.8,128.1z"/>
	</g>
</g>
<g>
	<g>
		<path class="st2" d="M91.2,330.7l0.5-0.8c1.1,1.1,3,1.9,5.1,1.9c3.1,0,4.4-1.3,4.4-3c0-4.6-9.6-1.8-9.6-7.5c0-2.2,1.7-4.1,5.4-4.1
			c1.7,0,3.4,0.5,4.6,1.4l-0.4,0.9c-1.3-0.9-2.8-1.3-4.2-1.3c-3,0-4.3,1.4-4.3,3.1c0,4.6,9.6,1.9,9.6,7.5c0,2.2-1.7,4.1-5.5,4.1
			C94.5,332.8,92.3,331.9,91.2,330.7z"/>
		<path class="st2" d="M115.5,327.2h-9.9c0.1,2.7,2.1,4.6,4.9,4.6c1.4,0,2.8-0.5,3.7-1.6l0.6,0.7c-1,1.2-2.6,1.9-4.3,1.9
			c-3.5,0-5.9-2.4-5.9-5.8c0-3.4,2.4-5.8,5.5-5.8c3.1,0,5.5,2.4,5.5,5.8C115.5,327,115.5,327.1,115.5,327.2z M105.6,326.4h8.8
			c-0.2-2.5-2-4.3-4.4-4.3C107.6,322.1,105.8,323.9,105.6,326.4z"/>
		<path class="st2" d="M124.3,321.1v1.1c-0.1,0-0.2,0-0.3,0c-2.5,0-4.1,1.7-4.1,4.5v6h-1.1v-11.5h1.1v2.5
			C120.7,322.1,122.2,321.1,124.3,321.1z"/>
		<path class="st2" d="M137.1,321.2l-5.2,11.5h-1.1l-5.2-11.5h1.2l4.6,10.3l4.6-10.3H137.1z"/>
		<path class="st2" d="M139.1,317.6c0-0.5,0.4-0.9,0.9-0.9c0.5,0,0.9,0.4,0.9,0.9c0,0.5-0.4,0.9-0.9,0.9
			C139.5,318.4,139.1,318,139.1,317.6z M139.5,321.2h1.1v11.5h-1.1V321.2z"/>
		<path class="st2" d="M144,327c0-3.4,2.4-5.8,5.8-5.8c1.8,0,3.4,0.7,4.3,2.1l-0.8,0.6c-0.8-1.2-2.1-1.7-3.5-1.7
			c-2.7,0-4.7,1.9-4.7,4.8s2,4.8,4.7,4.8c1.4,0,2.7-0.5,3.5-1.7l0.8,0.6c-0.9,1.4-2.5,2.1-4.3,2.1C146.4,332.8,144,330.4,144,327z"
			/>
		<path class="st2" d="M166.9,327.2H157c0.1,2.7,2.1,4.6,4.9,4.6c1.4,0,2.8-0.5,3.7-1.6l0.6,0.7c-1,1.2-2.6,1.9-4.3,1.9
			c-3.5,0-5.9-2.4-5.9-5.8c0-3.4,2.4-5.8,5.5-5.8s5.5,2.4,5.5,5.8C166.9,327,166.9,327.1,166.9,327.2z M157.1,326.4h8.8
			c-0.2-2.5-2-4.3-4.4-4.3C159,322.1,157.2,323.9,157.1,326.4z"/>
		<path class="st2" d="M176.2,326.2v-8.9h1.1v8.8c0,3.8,1.8,5.6,5.1,5.6c3.2,0,5-1.8,5-5.6v-8.8h1.1v8.9c0,4.4-2.4,6.6-6.2,6.6
			C178.5,332.8,176.2,330.6,176.2,326.2z"/>
		<path class="st2" d="M203.6,326v6.7h-1.1v-6.6c0-2.6-1.4-4-3.7-4c-2.7,0-4.3,1.7-4.3,4.5v6.1h-1.1v-11.5h1.1v2.5
			c0.8-1.6,2.4-2.6,4.5-2.6C201.8,321.1,203.6,322.8,203.6,326z"/>
		<path class="st2" d="M216.5,325.4v7.3h-1.1v-2c-0.7,1.3-2.1,2.1-4.1,2.1c-2.6,0-4.1-1.3-4.1-3.3c0-1.7,1.1-3.2,4.3-3.2h3.9v-0.9
			c0-2.1-1.2-3.3-3.4-3.3c-1.6,0-3,0.6-4,1.4l-0.5-0.8c1.1-1,2.8-1.6,4.6-1.6C214.9,321.1,216.5,322.6,216.5,325.4z M215.4,329.3
			v-2.2h-3.9c-2.4,0-3.2,1-3.2,2.3c0,1.5,1.2,2.4,3.2,2.4C213.4,331.9,214.7,331,215.4,329.3z"/>
		<path class="st2" d="M230,321.2l-5.2,11.5h-1.1l-5.2-11.5h1.2l4.6,10.3l4.6-10.3H230z"/>
		<path class="st2" d="M240.3,325.4v7.3h-1.1v-2c-0.7,1.3-2.1,2.1-4.1,2.1c-2.6,0-4.1-1.3-4.1-3.3c0-1.7,1.1-3.2,4.3-3.2h3.9v-0.9
			c0-2.1-1.2-3.3-3.4-3.3c-1.6,0-3,0.6-4,1.4l-0.5-0.8c1.1-1,2.8-1.6,4.6-1.6C238.7,321.1,240.3,322.6,240.3,325.4z M239.2,329.3
			v-2.2h-3.9c-2.4,0-3.2,1-3.2,2.3c0,1.5,1.2,2.4,3.2,2.4C237.2,331.9,238.5,331,239.2,329.3z"/>
		<path class="st2" d="M244.5,317.6c0-0.5,0.4-0.9,0.9-0.9c0.5,0,0.9,0.4,0.9,0.9c0,0.5-0.4,0.9-0.9,0.9
			C244.9,318.4,244.5,318,244.5,317.6z M244.8,321.2h1.1v11.5h-1.1V321.2z"/>
		<path class="st2" d="M250.5,316.4h1.1v16.3h-1.1V316.4z"/>
		<path class="st2" d="M264.6,325.4v7.3h-1.1v-2c-0.7,1.3-2.1,2.1-4.1,2.1c-2.6,0-4.1-1.3-4.1-3.3c0-1.7,1.1-3.2,4.3-3.2h3.9v-0.9
			c0-2.1-1.2-3.3-3.4-3.3c-1.6,0-3,0.6-4,1.4l-0.5-0.8c1.1-1,2.8-1.6,4.6-1.6C263,321.1,264.6,322.6,264.6,325.4z M263.5,329.3v-2.2
			h-3.9c-2.4,0-3.2,1-3.2,2.3c0,1.5,1.2,2.4,3.2,2.4C261.5,331.9,262.8,331,263.5,329.3z"/>
		<path class="st2" d="M280.5,327c0,3.4-2.4,5.8-5.7,5.8c-2.1,0-3.8-1-4.7-2.8v2.7h-1.1v-16.3h1.1v7.4c0.9-1.7,2.6-2.7,4.7-2.7
			C278.1,321.1,280.5,323.5,280.5,327z M279.4,327c0-2.9-2-4.8-4.6-4.8c-2.6,0-4.6,2-4.6,4.8c0,2.9,2,4.8,4.6,4.8
			C277.4,331.8,279.4,329.8,279.4,327z"/>
		<path class="st2" d="M283.9,316.4h1.1v16.3h-1.1V316.4z"/>
		<path class="st2" d="M299.3,327.2h-9.9c0.1,2.7,2.1,4.6,4.9,4.6c1.4,0,2.8-0.5,3.7-1.6l0.6,0.7c-1,1.2-2.6,1.9-4.3,1.9
			c-3.5,0-5.9-2.4-5.9-5.8c0-3.4,2.4-5.8,5.5-5.8c3.1,0,5.5,2.4,5.5,5.8C299.3,327,299.3,327.1,299.3,327.2z M289.5,326.4h8.8
			c-0.2-2.5-2-4.3-4.4-4.3C291.4,322.1,289.7,323.9,289.5,326.4z"/>
	</g>
	<path class="st2" d="M145.7,260.3c0,17.4-12.7,32.5-40.8,32.5c-13.6,0-27.9-3.8-37.4-10.5l9-17.4c7.4,5.6,17.7,8.8,27.9,8.8
		c11.3,0,18.4-4.8,18.4-12.7c0-7.7-5-12.7-22.8-12.7H74.8l5-55.2h59.8v18.2H98.7l-1.5,18.6h8C134.2,229.9,145.7,242.9,145.7,260.3z
		 M154.9,242c0-32.4,17.9-50.7,42-50.7c24.2,0,42,18.4,42,50.7s-17.8,50.7-42,50.7C172.8,292.8,154.9,274.4,154.9,242z M216.1,242
		c0-22.3-7.8-31.5-19.2-31.5c-11.2,0-19.1,9.2-19.1,31.5c0,22.3,7.8,31.5,19.1,31.5C208.3,273.6,216.1,264.3,216.1,242z
		 M321.1,261.1c0,16.5-12.7,31.7-40.6,31.7c-13.7,0-27.9-3.8-37.4-10.5l8.8-17.4c7.4,5.6,17.8,8.8,28,8.8c11.3,0,18.4-4.6,18.4-12.6
		c0-7.4-5.5-12-18.4-12h-10.4v-15l20.2-22.8h-41.7V193h68.6v14.7l-22.1,25.2C312.1,235.7,321.1,246.7,321.1,261.1z"/>
</g>
<g>
	<g>
		<path class="st4" d="M270.5,45.2L270.5,45.2c-1-1.6-0.5-3.8,1.1-4.8l5.7-3.6c1.6-1,3.8-0.5,4.8,1.1l0,0c1,1.6,0.5,3.8-1.1,4.8
			l-5.7,3.6C273.7,47.3,271.5,46.8,270.5,45.2z"/>
		<g>
			<g>
				<defs>
					<path id="XMLID_17_" d="M267.4,69.7c0,0-4.1-6.1-9.9-9.8c-5.7-3.7-15.6-8.1-15.6-8.1l-3.2-18c0,0,5.4-5.1,8.3-9.8
						c2.9-4.7,2-7.9,0.1-11.1c-1.8-3.3-4.5-1.1-4.8,0.3c-0.4,1.5-0.5,4.8-0.5,4.8s-1.7-12-2.8-14.7c-1-2.7-4.9-0.1-4.5,0.8
						c0,0-1.2-3.4-3.6-3.4c-2.4,0-3.1,4-3.1,4s-3.1-1.4-4.8,0.4c-1.7,1.8-0.9,6.2-0.9,6.2s-2.7,1-3.2,4.9c-0.4,3.9-0.1,10.7,1,12.6
						c1.1,1.9,1.4,2.8,1.4,2.8c-1.4,16.2-1.3,15.2-1.7,21.6c-0.3,4.6,2.7,15.2,7,19.6c4.3,4.4,19.6,12.2,19.6,12.2
						S262.5,80.7,267.4,69.7z"/>
				</defs>
				<use xlink:href="#XMLID_17_"  style="overflow:visible;fill:#FFFFFF;"/>
				<clipPath id="XMLID_22_">
					<use xlink:href="#XMLID_17_"  style="overflow:visible;"/>
				</clipPath>
				<path class="st5" d="M246.5,84.9c0,0,16-4.2,20.9-15.2c0,0-0.3-0.5-0.9-1.2l-4.2-3.5c0,0-8.8,0.7-17.6,2.6
					c-8.8,2-15.6-2.3-18.2-12c-2.6-9.8-5-24.1-5-24.1l0,0v0c-1.4,16.2-1.3,15.2-1.7,21.6c-0.3,4.6,2.7,15.2,7,19.6
					C231.2,77.1,246.5,84.9,246.5,84.9z"/>
				<path class="st6" d="M246.5,84.9c0,0,16-4.2,20.9-15.2c0,0-0.3-0.5-0.9-1.2l-4.2-3.5c0,0-8.8,0.7-17.6,2.6
					c-8.8,2-15.6-2.3-18.2-12c-2.6-9.8-5-24.1-5-24.1l0,0v0c-1.4,16.2-1.3,15.2-1.7,21.6c-0.3,4.6,2.7,15.2,7,19.6
					C231.2,77.1,246.5,84.9,246.5,84.9z"/>
				
					<use xlink:href="#XMLID_17_"  style="overflow:visible;fill:none;stroke:#263238;stroke-width:1.1915;stroke-linecap:round;stroke-linejoin:round;stroke-miterlimit:10;"/>
			</g>
			<path class="st4" d="M240.8,44.8l-2-11c0,0,5.4-5.1,8.3-9.8c2.9-4.7,2-7.9,0.1-11.1c-1.8-3.3-4.5-1.1-4.8,0.3
				c-0.4,1.5-0.5,4.8-0.5,4.8s-1.7-12-2.8-14.7c-1-2.7-4.9-0.1-4.5,0.8c0,0-1.2-3.4-3.6-3.4s-3.1,4-3.1,4s-3.1-1.4-4.8,0.4
				c-1.7,1.8-0.9,6.2-0.9,6.2s-2.7,1-3.2,4.9c-0.4,3.9-0.1,10.7,1,12.6c1.1,1.9,1.4,2.8,1.4,2.8c-0.6,7.2-0.9,11-1.1,13.5
				L240.8,44.8z"/>
			<path class="st4" d="M224.8,70c0.4,0.6,0.8,1.2,1.2,1.7c4.2-3.5,13.7-12,18-19.3c-1.2-0.4-2-0.6-2-0.6S233.2,63.4,224.8,70z"/>
			<g>
				<path class="st7" d="M241.8,18c0,0-9.5-0.4-10.5,7.6"/>
				<line class="st7" x1="234.6" y1="4" x2="234.9" y2="14.1"/>
				<line class="st7" x1="228" y1="4.6" x2="228.6" y2="13.7"/>
				<line class="st7" x1="222.3" y1="11.2" x2="223.3" y2="16.9"/>
				<path class="st7" d="M236.8,13.6c0,0-10.7,1.8-14.8,5.3"/>
			</g>
			<g>
				<defs>
					<path id="XMLID_16_" d="M234.3,76.7c3.5-3,3.2-9-0.6-13.5c-3.7-4.3-9.3-5.6-12.9-3c1.2,4.6,3.4,9.8,6.1,12.5
						c1.3,1.4,3.7,3,6.3,4.7C233.6,77.2,234,76.9,234.3,76.7z"/>
				</defs>
				<use xlink:href="#XMLID_16_"  style="overflow:visible;fill:#C6FF00;"/>
				<clipPath id="XMLID_23_">
					<use xlink:href="#XMLID_16_"  style="overflow:visible;"/>
				</clipPath>
				
					<use xlink:href="#XMLID_16_"  style="overflow:visible;fill:none;stroke:#263238;stroke-width:1.1915;stroke-linecap:round;stroke-linejoin:round;stroke-miterlimit:10;"/>
			</g>
		</g>
		<g>
			<defs>
				<path id="XMLID_15_" d="M227.5,88.3c0,0-4.5,0.5-5.9,1.7c-1.4,1.2-12.1,10.4-13.9,15.8c-1.7,5.4,4.9,21.7,12.1,28
					c7.2,6.3,16.2,12.9,23.9,11.6c7.7-1.4,16.5-13.2,17.4-16.4c0.9-3.2-29.1-40-29.1-40S229.9,86.9,227.5,88.3z"/>
			</defs>
			<use xlink:href="#XMLID_15_"  style="overflow:visible;fill:#FFFFFF;"/>
			<clipPath id="XMLID_24_">
				<use xlink:href="#XMLID_15_"  style="overflow:visible;"/>
			</clipPath>
			<path class="st8" d="M227.5,88.3c0,0-0.9,0.1-2,0.3l1,1.7c0,0-0.9,9.5,5.6,20.2c6.5,10.7,17.9,17.6,17.6,21.5
				c-0.3,3.9,1,9.1-8.8,8.5c-9.8-0.7-20.2-17.2-23.7-25.4c-1.9-4.2-3.5-10.7-5.3-15.6c-1.9,2.2-3.6,4.5-4.2,6.4
				c-1.7,5.4,4.9,21.7,12.1,28c7.2,6.3,16.2,12.9,23.9,11.6c7.7-1.4,16.5-13.2,17.4-16.4c0.9-3.2-29.1-40-29.1-40
				S229.9,86.9,227.5,88.3z"/>
			<path class="st9" d="M227.5,88.3c0,0-0.9,0.1-2,0.3l1,1.7c0,0-0.9,9.5,5.6,20.2c6.5,10.7,17.9,17.6,17.6,21.5
				c-0.3,3.9,1,9.1-8.8,8.5c-9.8-0.7-20.2-17.2-23.7-25.4c-1.9-4.2-3.5-10.7-5.3-15.6c-1.9,2.2-3.6,4.5-4.2,6.4
				c-1.7,5.4,4.9,21.7,12.1,28c7.2,6.3,16.2,12.9,23.9,11.6c7.7-1.4,16.5-13.2,17.4-16.4c0.9-3.2-29.1-40-29.1-40
				S229.9,86.9,227.5,88.3z"/>
			
				<use xlink:href="#XMLID_15_"  style="overflow:visible;fill:none;stroke:#263238;stroke-width:1.1915;stroke-linecap:round;stroke-linejoin:round;stroke-miterlimit:10;"/>
		</g>
		<g>
			<g>
				<defs>
					<path id="XMLID_14_" d="M265.7,66.5c0,0-4.7-1.6-11.8,1.4c-7.1,3-24.7,13.4-27.3,22.4c-1.7,5.9,17,33.6,28.7,38.2
						c3.1,1.2,6,2.6,12.4-2.7c6.4-5.2,19.9-19.8,23.4-26.2c3.5-6.4-2-11.2-3.8-14C285.4,82.8,270.6,64.4,265.7,66.5z"/>
				</defs>
				<use xlink:href="#XMLID_14_"  style="overflow:visible;fill:#FFFFFF;"/>
				<clipPath id="XMLID_25_">
					<use xlink:href="#XMLID_14_"  style="overflow:visible;"/>
				</clipPath>
				<g class="st10">
					<path class="st0" d="M291.2,99.5l-12.2,3.9c0,0-12.7,15-17.2,18.9c-4.6,3.9-18.9-5.5-23.7-10.1c-0.5-0.5-1-0.9-1.4-1.3
						c5.8,7.9,13.1,15.5,18.7,17.7c3.1,1.2,6,2.6,12.4-2.7C274.1,120.6,287.6,106,291.2,99.5C291.1,99.6,291.1,99.6,291.2,99.5z"/>
					<path class="st0" d="M284.8,98.2l6.6,0.9c2.9-6.1-2.3-10.7-4.1-13.4c-1.9-2.8-16.6-21.2-21.6-19.1c0,0-1-0.3-2.8-0.4
						c-6,4.5-5.3,9.7,0.2,19.1C268.6,94.6,284.8,98.2,284.8,98.2z"/>
				</g>
				<g class="st11">
					<path class="st12" d="M291.2,99.5l-12.2,3.9c0,0-12.7,15-17.2,18.9c-4.6,3.9-18.9-5.5-23.7-10.1c-0.5-0.5-1-0.9-1.4-1.3
						c5.8,7.9,13.1,15.5,18.7,17.7c3.1,1.2,6,2.6,12.4-2.7C274.1,120.6,287.6,106,291.2,99.5C291.1,99.6,291.1,99.6,291.2,99.5z"/>
					<path class="st12" d="M284.8,98.2l6.6,0.9c2.9-6.1-2.3-10.7-4.1-13.4c-1.9-2.8-16.6-21.2-21.6-19.1c0,0-1-0.3-2.8-0.4
						c-6,4.5-5.3,9.7,0.2,19.1C268.6,94.6,284.8,98.2,284.8,98.2z"/>
				</g>
				
					<use xlink:href="#XMLID_14_"  style="overflow:visible;fill:none;stroke:#263238;stroke-width:1.1915;stroke-linecap:round;stroke-linejoin:round;stroke-miterlimit:10;"/>
			</g>
			<g>
				<path class="st4" d="M248.7,110.2l-12.1-16.6c-1.9-2.6-1.3-6.3,1.3-8.2l12.8-9.3c2.6-1.9,6.3-1.3,8.2,1.3L271,94
					c1.9,2.6,1.3,6.3-1.3,8.2l-12.8,9.3C254.3,113.4,250.6,112.9,248.7,110.2z"/>
				<path class="st4" d="M424.8,192.6c-15-39-52.3-38.6-85.3-38.2c-11.4,0.1-22.1,0.3-32-1c-33.4-4.2-42.9-38.5-43-39
					c-0.3-1.3-1.6-2-2.9-1.7c-1.3,0.3-2,1.6-1.7,2.9c0.1,0.4,10.4,37.8,47,42.5c10.2,1.3,21.6,1.2,32.7,1c33-0.4,67.1-0.8,80.8,35.1
					c6.3,16.5,2.8,35.9-8.9,49.5c-10.2,11.8-24.8,16.6-39.9,13.1c-14.2-3.3-28.3-7.8-41.9-12.1c-22.5-7.2-45.8-14.6-70.5-16.7
					c-42.3-3.6-71.8,17.1-105.9,40.9c-6.9,4.8-13.9,9.8-21.4,14.7l-4.2,2.8c-21.1,14.1-42.9,28.6-67.6,31.3
					c-19.2,2.1-38.7-6.9-48.6-22.4C6,286.7,4,276.2,6.3,266.7c2-8.7,7.3-15.7,15.1-20.3c12.8-7.6,35.3-10.1,54.6-8l0.3-4.8
					c-20.2-2.1-43.8,0.6-57.3,8.7c-8.8,5.2-14.9,13.5-17.3,23.3c-2.5,10.7-0.4,22.6,5.9,32.4c9.9,15.5,27.8,24.8,46.8,24.9
					c2.1,0,4.2-0.1,6.2-0.3c25.8-2.8,49.1-18.3,69.7-32l4.2-2.8c7.5-5,14.6-10,21.5-14.8c33.3-23.3,62.1-43.5,102.8-40.1
					c24.2,2,47.2,9.4,69.4,16.5c13.7,4.4,27.9,8.9,42.3,12.2c16.9,3.9,33.1-1.5,44.5-14.6C427.9,232.1,431.7,210.8,424.8,192.6z"/>
				<path class="st13" d="M258.7,83.5c0,1.8-1.5,3.2-3.2,3.2c-1.8,0-3.2-1.5-3.2-3.2s1.5-3.2,3.2-3.2
					C257.2,80.2,258.7,81.7,258.7,83.5z"/>
				<path class="st13" d="M249.9,90.9c0,1.8-1.5,3.2-3.2,3.2c-1.8,0-3.2-1.5-3.2-3.2c0-1.8,1.5-3.2,3.2-3.2
					C248.4,87.7,249.9,89.1,249.9,90.9z"/>
			</g>
		</g>
		<g>
			<defs>
				
					<ellipse id="XMLID_13_" transform="matrix(0.6614 -0.75 0.75 0.6614 47.5725 237.8313)" cx="287.2" cy="66.2" rx="26.5" ry="26.5"/>
			</defs>
			<use xlink:href="#XMLID_13_"  style="overflow:visible;fill:#FFFFFF;"/>
			<clipPath id="XMLID_26_">
				<use xlink:href="#XMLID_13_"  style="overflow:visible;"/>
			</clipPath>
			<path class="st14" d="M307.4,49c-0.9-1.1-1.9-2.1-3-3c2.7,9.6-0.2,20.4-8.3,27.3c-10,8.6-24.6,8.3-34.4,0c1,3.6,2.8,7,5.3,10
				c9.5,11.1,26.2,12.4,37.4,2.9C315.6,76.9,316.9,60.1,307.4,49z"/>
			<path class="st15" d="M307.4,49c-0.9-1.1-1.9-2.1-3-3c2.7,9.6-0.2,20.4-8.3,27.3c-10,8.6-24.6,8.3-34.4,0c1,3.6,2.8,7,5.3,10
				c9.5,11.1,26.2,12.4,37.4,2.9C315.6,76.9,316.9,60.1,307.4,49z"/>
			
				<use xlink:href="#XMLID_13_"  style="overflow:visible;fill:none;stroke:#263238;stroke-width:1.1915;stroke-linecap:round;stroke-linejoin:round;stroke-miterlimit:10;"/>
		</g>
		<g>
			<line class="st7" x1="310.7" y1="84.5" x2="318.5" y2="78"/>
			<path class="st2" d="M320.5,78.8c0.9-0.7,1-2,0.2-2.9c-0.7-0.9-2-1-2.9-0.2c-0.9,0.7-1,2-0.2,2.9
				C318.4,79.4,319.7,79.5,320.5,78.8z"/>
		</g>
		<path class="st4" d="M301.3,92.5L301.3,92.5c-1.3-1.5-1.1-3.7,0.4-4.9l5.1-4.4c1.5-1.3,3.7-1.1,4.9,0.4l0,0
			c1.3,1.5,1.1,3.7-0.4,4.9l-5.1,4.4C304.7,94.2,302.5,94,301.3,92.5z"/>
		<g>
			<g>
				<defs>
					<path id="XMLID_12_" d="M293,96.9c0,0-10.3-2.8-14.3,5c-4.1,7.7,0.5,27,0.5,27s-7.5,12.2-9.4,13.5c-1.9,1.3-7.3,0.7-12.6,3.5
						c-5.3,2.7-3.5,5.5-2.1,6.4c1.4,0.9,5.7-1.9,7-1.7c1.3,0.1,1.1,2.4-3.9,7.6c-5,5.2-7.3,5.3-5.9,7.8c1.5,2.4,4,1.8,4,1.8
						s-0.7,2.1,1.4,3.1c2.1,1,2.9,0.2,2.9,0.2s-0.2,2.6,1.7,3.4c1.9,0.8,4.6,0,4.6,0s1.8,2.1,3.6,1.8c1.8-0.3,6-5.4,9.3-9.8
						c3.3-4.3,16-19.8,21-29.2c5-9.5,2.6-19,1.6-24.8C301.4,106.4,296.8,98.2,293,96.9z"/>
				</defs>
				<use xlink:href="#XMLID_12_"  style="overflow:visible;fill:#FFFFFF;"/>
				<clipPath id="XMLID_27_">
					<use xlink:href="#XMLID_12_"  style="overflow:visible;"/>
				</clipPath>
				<path class="st16" d="M302.5,112.3c-1-5.8-5.6-14.1-9.5-15.4c0,0-0.1,0-0.2-0.1c1.3,3,5.2,12.9,4.1,26.7
					c-1.3,16.6-16.5,29.7-21.1,34.5c-3.7,3.9-8.4,9.3-15.1,13.3c0,0.8,0.3,2.4,1.7,3c1.9,0.8,4.6,0,4.6,0s1.8,2.1,3.6,1.8
					c1.8-0.3,6-5.4,9.3-9.8c3.3-4.3,16-19.8,21-29.2C305.9,127.6,303.5,118.1,302.5,112.3z"/>
				<path class="st17" d="M302.5,112.3c-1-5.8-5.6-14.1-9.5-15.4c0,0-0.1,0-0.2-0.1c1.3,3,5.2,12.9,4.1,26.7
					c-1.3,16.6-16.5,29.7-21.1,34.5c-3.7,3.9-8.4,9.3-15.1,13.3c0,0.8,0.3,2.4,1.7,3c1.9,0.8,4.6,0,4.6,0s1.8,2.1,3.6,1.8
					c1.8-0.3,6-5.4,9.3-9.8c3.3-4.3,16-19.8,21-29.2C305.9,127.6,303.5,118.1,302.5,112.3z"/>
				
					<use xlink:href="#XMLID_12_"  style="overflow:visible;fill:none;stroke:#263238;stroke-width:1.1915;stroke-linecap:round;stroke-linejoin:round;stroke-miterlimit:10;"/>
			</g>
			<g>
				<path class="st7" d="M270.6,176.1c1.8-0.3,6-5.4,9.3-9.8c1.9-2.5,6.7-8.5,11.5-14.9c-3.2-11-12.7-14.3-16.9-15.2
					c-1.9,2.9-3.9,5.6-4.7,6.2c-1.9,1.3-7.3,0.7-12.6,3.5c-5.3,2.7-3.5,5.5-2.1,6.4c1.4,0.9,5.7-1.9,7-1.7c1.3,0.1,1.1,2.4-3.9,7.6
					c-5,5.2-7.3,5.3-5.9,7.8c1.5,2.4,4,1.8,4,1.8s-0.7,2.1,1.4,3.1c2.1,1,2.9,0.2,2.9,0.2s-0.2,2.6,1.7,3.4c1.9,0.8,4.6,0,4.6,0
					S268.7,176.5,270.6,176.1z"/>
				<path class="st7" d="M256.3,167.6c0,0,5.8-2.8,10-7.9"/>
				<path class="st7" d="M260.6,170.9c0,0,6-2.7,10.5-8"/>
				<path class="st7" d="M266.9,174.4c0,0,5.8-4.3,8.5-7.9"/>
			</g>
			<path class="st4" d="M302.9,131.9c0.2-0.8,0.4-1.5,0.5-2.3c-8.4-5.6-18.9-3.8-24.6-2.1c0.2,0.9,0.3,1.4,0.3,1.4s-0.3,0.5-0.9,1.4
				C291.8,127,299.2,129.4,302.9,131.9z"/>
			<path class="st13" d="M297.1,137c0.8,0.9,1.7,1.6,2.6,2.2c0.4-0.7,0.8-1.4,1.1-2c3-5.7,3.3-11.4,2.9-16.3
				c-2.1,0.1-4.1,0.8-5.8,2.3C293.9,126.6,293.5,132.8,297.1,137z"/>
		</g>
		<g>
			<g>
				<defs>
					<path id="XMLID_11_" d="M202.3,100.5c0,0,4.2,12,9.5,12.9s12.8-8.2,14.3-15c1.5-6.8-3.8-12.3-11.5-19.1
						c-7.7-6.8-18.7-10.8-28-5.6c-9.3,5.2-23.1,20-23.1,20s-8.6-7.6-13.2-3.7c-4.6,3.9,1.4,15.9,5.6,20.8
						c4.2,4.9,11.9,12.1,19.2,10.4c7.4-1.7,13.2-15.6,18-19.6C198,97.5,201.3,99.3,202.3,100.5z"/>
				</defs>
				<use xlink:href="#XMLID_11_"  style="overflow:visible;fill:#FFFFFF;"/>
				<clipPath id="XMLID_28_">
					<use xlink:href="#XMLID_11_"  style="overflow:visible;"/>
				</clipPath>
				<path class="st18" d="M214.3,103.4c-8.1-3.9-5.9-13.7-14-16.3c-8.1-2.6-7.5,2.9-14,13.3c-6.5,10.4-18.5,9.8-26.7,7.2
					c-2.8-0.9-5.3-1.9-7.6-2.9c1.3,2.4,2.7,4.6,4,6.1c4.2,4.9,11.9,12.1,19.2,10.4c7.4-1.7,13.2-15.6,18-19.6
					c4.8-4.1,8.1-2.3,9.1-1.1c0,0,4.2,12,9.5,12.9c5.3,0.9,12.8-8.2,14.3-15c0.3-1.2,0.3-2.3,0.2-3.4l-0.4-0.1
					C226,94.9,222.4,107.3,214.3,103.4z"/>
				<path class="st19" d="M214.3,103.4c-8.1-3.9-5.9-13.7-14-16.3c-8.1-2.6-7.5,2.9-14,13.3c-6.5,10.4-18.5,9.8-26.7,7.2
					c-2.8-0.9-5.3-1.9-7.6-2.9c1.3,2.4,2.7,4.6,4,6.1c4.2,4.9,11.9,12.1,19.2,10.4c7.4-1.7,13.2-15.6,18-19.6
					c4.8-4.1,8.1-2.3,9.1-1.1c0,0,4.2,12,9.5,12.9c5.3,0.9,12.8-8.2,14.3-15c0.3-1.2,0.3-2.3,0.2-3.4l-0.4-0.1
					C226,94.9,222.4,107.3,214.3,103.4z"/>
				
					<use xlink:href="#XMLID_11_"  style="overflow:visible;fill:none;stroke:#263238;stroke-width:1.1915;stroke-linecap:round;stroke-linejoin:round;stroke-miterlimit:10;"/>
			</g>
			<path class="st7" d="M176.1,81.6c-6.6,5.8-12.5,12.1-12.5,12.1s-8.6-7.6-13.2-3.7c-4.6,3.9,1.4,15.9,5.6,20.8
				c4.2,4.9,11.9,12.1,19.2,10.4c6.6-1.6,12-12.9,16.5-18.2C183.6,94.9,178.5,86.2,176.1,81.6z"/>
			<path class="st7" d="M198.2,71.4c-0.8-0.1-1.6-0.2-2.5-0.1c1.2,4.1,3.4,14.3,1.6,28c0.9-0.2,1.8-0.2,2.5-0.1
				C200.5,92.1,200.9,80.3,198.2,71.4z"/>
			<path class="st13" d="M203.9,87c-3.7,3.2-9.2,2.7-12.4-1c-3.2-3.7-2.7-9.2,1-12.4c3.7-3.2,9.2-2.7,12.4,1
				C208,78.3,207.6,83.8,203.9,87z"/>
			<path class="st7" d="M175.3,121.2c1.6-0.4,3.2-1.4,4.7-2.7c-4.7,0.8-13.4,0.5-21.3-9c-7.7-9.2-7.8-16.4-7.1-20.2
				c-0.4,0.2-0.8,0.4-1.1,0.7c-4.6,3.9,1.4,15.9,5.6,20.8C160.3,115.8,167.9,122.9,175.3,121.2z"/>
		</g>
		<g>
			<g>
				<defs>
					<path id="XMLID_10_" d="M226.4,143c0,0,12.2,3.6,16-0.2c3.8-3.8,4.4-15.4-3.9-20.3c-6-3.5-12.2-4-22.2-1.8
						c-10,2.3-19.7,8.9-20.8,19.5c-1.2,10.6,2.9,30.4,2.9,30.4s-11.2,2.6-10.6,8.6c0.5,6,13.7,8.1,20.2,7.5
						c6.5-0.6,16.7-2.6,19.6-9.6c2.9-7-5-19.8-5.5-26C221.5,144.8,224.8,143.1,226.4,143z"/>
				</defs>
				<use xlink:href="#XMLID_10_"  style="overflow:visible;fill:#FFFFFF;"/>
				<clipPath id="XMLID_29_">
					<use xlink:href="#XMLID_10_"  style="overflow:visible;"/>
				</clipPath>
				<path class="st20" d="M226.4,143c0,0,12.2,3.6,16-0.2c2.5-2.5,3.6-8.3,1.8-13.3h0c0,0,1,5.2-6.2,6.5c-7.2,1.3-18.9-1.3-24.1,5.2
					c-5.2,6.5,2.3,19.8,2.9,28.6c0.7,8.8-1.3,11.7-10.1,12.7c-8.6,1-16.6-5.3-18.4-1.5c2.7,4.6,13.8,6.3,19.6,5.7
					c6.5-0.6,16.7-2.6,19.6-9.6c2.9-7-5-19.8-5.5-26C221.5,144.8,224.8,143.1,226.4,143z"/>
				<path class="st21" d="M226.4,143c0,0,12.2,3.6,16-0.2c2.5-2.5,3.6-8.3,1.8-13.3h0c0,0,1,5.2-6.2,6.5c-7.2,1.3-18.9-1.3-24.1,5.2
					c-5.2,6.5,2.3,19.8,2.9,28.6c0.7,8.8-1.3,11.7-10.1,12.7c-8.6,1-16.6-5.3-18.4-1.5c2.7,4.6,13.8,6.3,19.6,5.7
					c6.5-0.6,16.7-2.6,19.6-9.6c2.9-7-5-19.8-5.5-26C221.5,144.8,224.8,143.1,226.4,143z"/>
				
					<use xlink:href="#XMLID_10_"  style="overflow:visible;fill:none;stroke:#263238;stroke-width:1.1915;stroke-linecap:round;stroke-linejoin:round;stroke-miterlimit:10;"/>
			</g>
			<path class="st7" d="M195.8,153.4c0.9,8.8,2.6,17.2,2.6,17.2s-11.2,2.6-10.6,8.6c0.5,6,13.7,8.1,20.2,7.5
				c6.5-0.6,16.7-2.6,19.6-9.6c2.6-6.3-3.5-17.3-5.2-24C211,155,200.9,154.1,195.8,153.4z"/>
			<path class="st7" d="M200.4,129.5c-0.5,0.6-1.1,1.2-1.5,1.9c4.1,1.4,13.6,5.5,23.7,14.9c0.3-0.9,0.8-1.6,1.3-2.1
				C218.5,139.6,209.1,132.5,200.4,129.5z"/>
			
				<ellipse transform="matrix(0.9211 -0.3892 0.3892 0.9211 -36.0505 91.4059)" class="st13" cx="207.6" cy="134.7" rx="8.8" ry="8.8"/>
			<path class="st7" d="M227.5,177.1c0.6-1.5,0.7-3.4,0.5-5.4c-2.1,4.3-7.4,11.2-19.7,12.1c-12,0.9-17.9-3.2-20.6-6
				c-0.1,0.4-0.1,0.8-0.1,1.3c0.5,6,13.7,8.1,20.2,7.5C214.4,186.1,224.7,184.1,227.5,177.1z"/>
		</g>
		<g>
			<path class="st22" d="M296.2,55.1c-2.7-3.6-5.1-7.3-7.2-10.9c-6.1-0.8-12.6,0.9-17.7,5.2c-9.5,8.1-10.6,22.4-2.5,31.9
				c8.1,9.5,22.4,10.6,31.9,2.5c4.7-4,7.4-9.6,7.8-15.3C304.2,64.6,300,60.2,296.2,55.1z"/>
			<path class="st12" d="M298.3,75.6c-2.8,2.4-7.3,1.9-9.9-1.1c-2.6-3-2.4-7.5,0.4-9.9c2.8-2.4,7.3-1.9,9.9,1.1
				C301.4,68.7,301.2,73.2,298.3,75.6z"/>
			<path class="st12" d="M290.9,58.8c-0.9,0.8-2.3,0.7-3-0.2c-0.8-0.9-0.7-2.3,0.2-3c0.9-0.8,2.3-0.7,3,0.2
				C291.9,56.7,291.8,58.1,290.9,58.8z"/>
		</g>
	</g>
	
		<rect x="70.4" y="231" transform="matrix(0.9952 9.796102e-02 -9.796102e-02 0.9952 23.4355 -6.0829)" class="st2" width="6.5" height="9.3"/>
</g>
</svg>
